<svg xmlns="http://www.w3.org/2000/svg" width="128" height="128" viewBox="0 0 128 128" fill="none">
  <rect width="128" height="128" rx="32" fill="#052415"/>
  <!-- Letter C as filled shape -->
  <path d="M84.5 43.2C79.1 34.5 70.5 29 61 29C44.4 29 31 43.1 31 60.5C31 77.9 44.4 92 61 92C70.8 92 79.6 86.2 85 77L76.5 72.5C73 78.5 67.5 82.5 61 82.5C50.2 82.5 41.5 72.6 41.5 60.5C41.5 48.4 50.2 38.5 61 38.5C67.2 38.5 72.7 42 76.2 47.5L84.5 43.2Z" fill="#F5EFE9"/>
  <!-- Accent dot -->
  <circle cx="95" cy="35" r="6" fill="#ABFFC0"/>
</svg>
