<svg xmlns="http://www.w3.org/2000/svg" width="128" height="128" viewBox="0 0 128 128" fill="none">
  <rect width="128" height="128" rx="32" fill="#052415"/>
  <svg x="21" y="21" width="86" height="86" viewBox="0 0 68 68" fill="none">
    <path d="M32 62 C33 52 33 44 33 36" stroke="#F5EFE9" stroke-width="2.6" stroke-linecap="round"/>
    <path d="M33 36 C26 24 14 12 6 6" stroke="#F5EFE9" stroke-width="2" stroke-linecap="round"/>
    <path d="M33 36 C42 22 54 10 62 6" stroke="#F5EFE9" stroke-width="2.2" stroke-linecap="round"/>
    <path d="M33 36 C22 30 10 28 6 30" stroke="#F5EFE9" stroke-width="1.6" stroke-linecap="round"/>
    <path d="M33 36 C44 28 56 20 62 18" stroke="#F5EFE9" stroke-width="2" stroke-linecap="round"/>
    <path d="M33 36 C38 24 48 14 56 10" stroke="#F5EFE9" stroke-width="1.8" stroke-linecap="round"/>
    <path d="M33 36 C33 26 30 14 24 6" stroke="#F5EFE9" stroke-width="1.8" stroke-linecap="round"/>
    <circle cx="6" cy="6" r="2.5" fill="#ABFFC0"/>
    <circle cx="62" cy="6" r="3" fill="#ABFFC0"/>
    <circle cx="6" cy="30" r="2" fill="#ABFFC0"/>
    <circle cx="62" cy="18" r="2.5" fill="#ABFFC0"/>
    <circle cx="56" cy="10" r="2" fill="#ABFFC0"/>
    <circle cx="24" cy="6" r="2.5" fill="#ABFFC0"/>
  </svg>
</svg>
